<svg version="1" xmlns="http://www.w3.org/2000/svg" width="1066.667" height="1066.667" viewBox="0 0 800.000000 800.000000"><path d="M664.8 10.5c-.2.1-3.6.6-7.6.9-4 .4-7.8.9-8.5 1.1-.7.2-3 .6-5.2.9-6.7.8-26.6 6.2-34 9.1-16 6.3-31 15-44 25.3-6 4.9-8.7 7.1-14.9 12.7-.6.5-4.9 4.4-9.6 8.5-4.7 4.1-8.7 7.8-9 8.1-.3.3-7.5 6.8-16 14.4-8.5 7.7-16 14.4-16.6 15-.8.8-15 13.7-20.8 19-5.1 4.6-27.3 25.1-32.1 29.6-3.3 3.1-7.8 7.3-10 9.4-14.4 13.3-42.3 40.3-68.5 66.2-16.8 16.6-30.7 30.3-31 30.5-.5.3-31.4-22-34.4-24.7-.6-.6-3.2-2.6-5.9-4.5-3.4-2.4-4.6-3.8-4.2-5.1 1.8-5.6 2.7-24.3 1.5-30.9-1-5.7-3.2-7.3-8.9-6.5-17.2 2.6-35.4 14.3-55.1 35.5-5.8 6.2-11.2 12.1-12 12.9-9.1 9.8-35 41.4-48.2 58.9-8.9 11.8-9.7 14.2-5.9 17.6 1 .9 5 2 9 2.5s7.5 1.2 7.8 1.5c.3.3-.2 1.3-1.2 2.2-.9 1-1.4 2.6-1.1 3.7.3 1.2-.4 2.9-1.9 4.5-1.3 1.4-2.1 3-1.8 3.6.3.6.3.8-.2.4-1-.9-11.5 9.1-11.5 10.9 0 .7-.4 1.3-.9 1.3s-2.1 2-3.6 4.5c-1.4 2.5-3.7 5.2-5 6.1-1.4.9-2.2 2-1.9 2.5.3.5 0 .9-.6.9s-.8.4-.5 1c.4.6-.1.7-1.1.3-1.4-.5-1.6-.3-1.1 1.1.4 1 .3 1.5-.3 1.1-.5-.3-4 1.7-7.7 4.6-7.3 5.6-9 7.3-14.3 14.8-1.3 1.9-4.7 5.8-7.4 8.6-6.6 6.7-11.6 13.1-14 17.8-1.1 2-3.4 5.5-5.3 7.6-1.8 2.2-3.3 4.9-3.3 6.1 0 1.8.5 2.1 3.3 1.8 2.9-.3 3.2-.1 3 2.5-.3 4 1.5 3.3 8-2.9 3.2-3.1 5.9-5.5 6.1-5.3.2.2-.1 3-.7 6.1-1.8 10.1 1.1 9.3 7.3-2 4.2-7.4 7.4-11.1 8.7-9.8 1.2 1.1-2.1 9.9-6.1 16.4-5.3 8.6-6.6 11.7-6.9 17.2-.2 4.3-.1 4.5 2.3 4.2 4-.4 7.3-3.4 10.6-9.6 1.7-3.1 4.2-6.9 5.7-8.3 2.4-2.5 2.7-2.5 5-1l2.5 1.6-1.9 5.1c-2.1 5.5-2.5 10.5-.9 11.5 1.9 1.2 7-2.9 13.5-10.6 2.6-3.2 8.5-15 7.9-16-.2-.4.1-.9.6-1.1.6-.2 1.2-1 1.4-1.8.3-1.5.6-2.3 4-10.4.9-2.1 1.3-4.3.9-4.9-.3-.5-.2-.7.4-.4.5.3 1.5-1.1 2.3-3.1.7-2 3.2-7.9 5.6-13 2.4-5.1 4.4-9.5 4.4-9.8 0-.3 1.3-3.2 3-6.5 1.6-3.3 2.4-5.7 1.7-5.4-.7.4-.5.1.4-.7 2-1.8 12-21.9 11.3-22.9-.3-.5.6-.9 1.9-.9 1.7 0 2.9-.9 3.9-3 1.4-2.9 1.6-2.9 3-1.3.9 1 2.8 4.3 4.3 7.4 3 6.6 5.8 8.5 9.8 7 3.8-1.5 20.2-26.7 39.6-60.9l6.4-11.3 2.9 4.3c1.6 2.4 6.3 9.6 10.4 16l7.6 11.8-6.4 7.2c-18 20.3-22.5 29.7-18.3 37.8 1.6 3.2 12.1 11.5 22 17.5 7.1 4.3 7.3 4.3 30-1 8.3-2 17.5-3.8 20.6-4.2 5.2-.5 5.8-.3 8.9 2.4l3.4 3-1.4 8.8-1.4 8.8 3.5 2.9 3.4 2.9-2.2 1.7c-1.2.9-7.4 5.7-13.7 10.7-6.4 4.9-11.6 9.6-11.6 10.3 0 .8 1 2.2 2.2 3.1l2.1 1.8-3.9 3.8c-2.1 2.1-3.8 4.2-3.7 4.7.2.4-.3.7-1 .5-.6-.1-1.1.3-1 1 .2.7-.4 1-1.2.7-1.4-.6-2 .6-1.6 2.9.1.5-.3.6-.9.2-1.3-.8-4.2 1.4-3.4 2.6.3.5.1.8-.4.7-1.3-.4-13.2 9.3-12.9 10.6.1.6-.6 1-1.5.8-1.1-.2-1.8.3-1.8 1.3 0 .9-.4 1.4-.9 1.1-1.1-.7-5.3 3.9-4.4 4.9.5.4.3.5-.4.1-1.9-1.1-10.5 7.7-9.7 10 .4 1.3.3 1.5-.3.6-.8-1-1.2-1-2.3.3-.7.8-.9 1.5-.6 1.5.4 0-.3 1-1.6 2.2-1.3 1.3-3.7 4.3-5.3 6.8-1.7 2.5-3.4 4.9-3.8 5.5-.4.5-1.8 2.4-3 4.1-3.5 4.9-9.1 10.8-13 13.8-2 1.6-3.4 3.3-3 3.9.3.6.1.7-.6.3-1.1-.7-7.6 3.4-9.2 5.7-.3.5-.8.8-1 .6-.5-.3-34.2 16.1-34.9 17-.3.3-2.1 1.4-4 2.4-7 3.6-19.9 17.5-18.4 19.8.4.7.3.9-.3.6-.6-.4-2.1 1.2-3.3 3.6-1.2 2.3-5.2 7.1-8.9 10.7-7.3 7.1-16.2 15-16.8 15-.3 0-1 .6-1.8 1.2-.7.7-3.3 3.1-5.9 5.2-2.5 2.1-4.3 4.4-3.9 4.9.3.6.1.7-.6.3-2.7-1.7-20.7 20.8-19.8 24.6.3 1 .2 1.6-.2 1.3-.4-.2-1.5 2-2.4 4.9-1.8 5.8-5.6 11.1-13.5 19.5-6 6.3-8.1 10.4-8.4 16.1-.2 5.9 3 8.9 10.2 9.5 16.1 1.5 18.2 2.7 18.5 10.2.2 6.7 1.2 9 4 9.6 3.8.7 9.5-2.6 25-14.5.6-.4 3-2.4 5.4-4.3 11.5-9.3 13.8-8.4 12.6 5.3-2 21.6-1.2 26.8 4.5 29.7 3.4 1.8 6.6 1.2 9.8-1.7 2.4-2.3 16.2-29 16.2-31.5 0-.7.4-1.3.9-1.3s1.4-1.3 2-2.8c1.5-3.6 8.3-10.8 11-11.7 2.3-.7 5.4 1.1 6 3.5 3 12.3-4.3 40.3-13.4 51-2.5 3-6.5 11.2-8.6 17.4-4.2 13.3-2.1 35.9 3.9 40.7 2.4 1.9 3.6 2.1 10.3 1.6 9.7-.6 18.7-4.4 23.3-9.8 2.6-3.1 7.2-13.7 9.1-20.9 2.3-9.2 8.7-15.2 17.9-16.5 10.7-1.6 21.3 6.9 19.5 15.5-1.8 8.1-3.2 19.4-3.2 24.5.1 18.8 9.1 26.6 23.3 20.2 7.9-3.6 18.3-12.2 24.7-20.4 5.4-6.8 6.3-8.2 6.3-9.2 0-.6.4-1.1.8-1.1 1.3 0 4.3-7 3.6-8.2-.4-.6-.2-.8.3-.5.6.4 2-1.5 3.2-4.6 2.9-7.3 9.3-32.5 8.6-33.7-.3-.6-.2-1 .3-1 .8 0 3.9-10.9 4.7-16.5.1-1.1.7-3.3 1.4-4.8.6-1.5 1-3.1.9-3.5-.1-.4.2-1.4.5-2.2 1.5-3.7 5.6-20.4 5.2-21.1-.3-.4 0-.9.5-1.1.6-.2 1.2-2 1.3-4 .1-2 .5-3.4 1-3.1.4.2.8-.5.8-1.6.2-2.9.3-3.4 1.1-4.7.4-.6.9-2.5 1-4.3.1-1.7.6-3.1 1-3.1s.8-.6.8-1.3c0-.7 1.1-4.8 2.5-9.2 1.4-4.4 2.3-8.5 2.1-9.1-.3-.7.2-1.8 1-2.4.8-.7 1.4-2.1 1.4-3.1s.5-2.1 1-2.4c1.5-.9 1.2-2.7-.2-1.9-.7.4-.5-.1.4-1.2.9-1 1.9-3.2 2.2-4.7.4-2.5 2.2-8.1 4.6-14.2 2.8-7.3 5.9-17.8 5.5-18.5-.3-.5 0-1 .5-1.2.6-.2 1.2-1 1.3-1.8.2-.8.6-2.1 1-2.8.5-.6.5-1.7.2-2.2-.3-.6-.2-1 .4-1 .9 0 2.5-3.3 2.6-5.5.1-.6.7-2.1 1.4-3.4.7-1.2 1.1-3.2.8-4.2-.3-1-.2-1.7.3-1.4 1 .6 4.1-7.5 3.3-8.8-.3-.6-.2-.7.4-.4.6.4 1.6-1.2 2.2-3.5.7-2.3 2-5.3 2.9-6.7 1-1.4 1.6-2.6 1.4-2.8-.1-.2.5-1.7 1.4-3.4.8-1.7 1.3-3.7 1-4.5-.3-.8-.2-1.3.2-1 1 .6 5.5-9.2 4.7-10.4-.3-.4.2-1.1 1.1-1.4.9-.3 1.4-1.2 1.2-1.8-.3-.7.1-1.9.9-2.6.7-.8 1.1-1.8.8-2.3-.4-.5-.1-.9.6-.9.6 0 .9-.8.6-2-.3-1.1-.1-1.8.4-1.4.5.3.9 0 .9-.6s1-.8 2.4-.4c2.3.6 2.6 0 7.5-14.9 6.9-21 5.9-19.1 8.7-17.2 3.3 2.1 4.7 1.9 10.3-1.6 10.1-6.2 15.9-4.8 18.5 4.4 1.6 5.4 2.1 9.3 3.1 21.2 1.3 16.5 2.3 22.2 4.2 25.1.5.6 7 5.2 14.6 10.2l13.7 9.1 4.6-1.4c8.8-2.6 11.3-5.3 22.1-23.7 4-6.8 7.6-12.2 8-12.2 3.7.6 33.1 7.8 34.1 8.4 1.2.6 1.2.9 0 2.1-6.2 6.5-28.1 33.5-41 50.4-7.2 9.4-8.2 11.5-7.9 15.8.1 2.3 5.8 4.7 11 4.7 2.2 0 5.2.5 6.6 1l2.6 1-2.1 2.7c-1.3 1.7-1.7 3-1.1 3.6.6.6-.5 2.6-3.2 5.5-2.3 2.4-4.1 4.9-3.9 5.4.1.5-.2.7-.7.4-1.2-.8-7.2 6.4-6.4 7.7.3.6.2.7-.4.4-.5-.3-1.8.6-2.9 2.1-1 1.4-3.8 5-6.2 7.9-2.3 3-4 5.8-3.7 6.3.3.5 0 .7-.8.5-.7-.3-2.3.3-3.4 1.3-1.2 1-3.4 2.7-4.9 3.8-5.3 3.8-12.6 10.9-14.1 13.8-.8 1.5-5.1 6.5-9.4 11.1-7.6 7.8-12.9 14.5-12.9 16.2 0 .4-1.8 3.1-3.9 6-2.2 2.8-4.4 6-4.9 7-1.4 2.6.1 4.7 2.7 4 2.3-.6 3.7.9 3.3 3.5-.5 2.9 1.1 2.1 7.3-3.7 3.2-3 6.1-5.5 6.5-5.5.5 0 .1 2.5-.7 5.6-1.7 6.6-.6 8.9 2.7 5.9 1.1-1 2-2.4 2-3.1 0-.7.3-1.4.8-1.6.4-.1 1.5-2 2.6-4 2.5-5 7.1-10.4 7.9-9.2.8 1.4-2.9 11.8-5.9 16.5-5.4 8.6-6.7 11.6-7.2 17.1-.4 5.4-.4 5.7 1.7 5.3 4.5-.9 8.1-4 11.2-9.9 5.2-9.9 8.9-12.8 11.8-9.2.9 1 .8 2.4-.3 5.7-4 11.8-2.5 15 4.5 9.7 5.3-4.1 15.3-18.3 14.6-21-.3-1-.2-1.6.2-1.4.4.3 1.3-1 2-2.7.7-1.8 1.7-4.1 2.1-5.2 3.6-8 5.9-14.9 5.3-15.8-.3-.5-.1-.7.4-.4.7.4 2.1-1.9 3.6-5.6 1.4-3.4 3.9-9.3 5.6-13.1 1.8-3.8 3-7.5 2.7-8.2-.3-.8 0-1.3.6-1.1.6.1 1.6-1.2 2.2-2.8.6-1.7 1.5-3.3 2.1-3.7.7-.5.7-.8 0-.8-.6 0-.5-.3.1-.8 1.8-1.1 6.9-12.5 6.6-14.7-.1-1.4.1-1.6.6-.7.6.9 1.2.6 2-1.2.8-1.9.8-2.6-.1-3-.7-.2-.4-.5.7-.5 1.2-.1 1.6-.6 1.3-1.5-.4-.9-.1-1.3.6-1.1 1.5.6 2.9-.3 4.9-3.3 1.5-2.2 1.5-2.2 4.8 4 4.2 8 5.8 9.8 8.6 9.8 4.4 0 8-4.9 29.9-41 16.1-26.5 37.5-66.6 37.5-70.1 0-.8.4-1.9.8-2.4 3-3.7 6.4-20.1 6.4-31.6.1-12.3-1.3-17.6-4.6-18.5-4.9-1.2-21.9 4.7-32.4 11.3l-5.3 3.4-6.5-4.6c-3.6-2.5-6.9-4.5-7.4-4.5-.4 0-1-.3-1.2-.8-.1-.4-6.7-4.9-14.6-10.1-7.9-5.2-14.5-9.8-14.7-10.2-.3-.4 2.7-7.3 6.5-15.3s7.9-16.8 9.1-19.4c1.2-2.6 3.7-8.1 5.6-12.2 3.3-7 15.2-33.3 19.3-42.5 1-2.2 3.8-8.5 6.3-14 28.5-63.6 76.4-181.6 80.7-199 2.5-10 3.3-14.1 4.6-24.5.5-4.3.5-30.3 0-34.5-.2-1.7-.7-5.5-1.1-8.5-.3-3-1-7.1-1.5-9-.5-1.9-1.1-4.6-1.4-6-1.5-8.1-5.9-23.1-7.9-27-3.3-6.5-6.9-8.1-18.4-7.9-5.1.1-9.4.3-9.5.4zM333 427.4c0 .3-.4.8-1 1.1-.5.3-1 .1-1-.4 0-.6.5-1.1 1-1.1.6 0 1 .2 1 .4zm-.4 4.1c-.1.8-.5 1.7-.8 2.1-.5.4-.4-1.6.1-3.4.3-.9.9.1.7 1.3zm4.4.1c0 .8-1.9 1.3-2.4.6-.3-.5.1-.9.9-.9s1.5.2 1.5.3zm-10.5 2.4c.3.5.1 1-.4 1-.6 0-1.1-.5-1.1-1 0-.6.2-1 .4-1 .3 0 .8.4 1.1 1zm-6.2 17.5c-.3.9-.8 1.4-1 1.1-.3-.3-.2-.9.2-1.5.9-1.6 1.5-1.3.8.4zm-3.9.3c.3.5-.1.9-.9.9s-1.2-.4-.9-.9c.3-.4.7-.8.9-.8.2 0 .6.4.9.8zM307 454c0 .5-.2 1-.4 1-.3 0-.8-.5-1.1-1-.3-.6-.1-1 .4-1 .6 0 1.1.4 1.1 1zm7.6 2.5c-.1.8-.5 1.7-.8 2.1-.5.4-.4-1.6.1-3.4.3-.9.9.1.7 1.3zm-16 5.1c.1.9 0 1.3-.4 1-.3-.4-.7-1.4-.8-2.2-.1-.9 0-1.3.4-1 .3.4.7 1.4.8 2.2zm8.4-.2c0 .3-.4.8-1 1.1-.5.3-1 .1-1-.4 0-.6.5-1.1 1-1.1.6 0 1 .2 1 .4zm-16.4 5.1c-.1.8-.5 1.7-.8 2.1-.5.4-.4-1.6.1-3.4.3-.9.9.1.7 1.3zm7.9 2.7c.5-.4.5-.1.1.6-.6 1-1.1 1-2.2.1-.8-.6-1.4-1.4-1.4-1.6 0-.3.6 0 1.3.6.8.6 1.8.7 2.2.3zm-11.9 2.4c.1.9 0 1.3-.4 1-.3-.4-.7-1.4-.8-2.2-.1-.9 0-1.3.4-1 .3.4.7 1.4.8 2.2zm8 2.6c.3.4-.1.5-1 .4-.8-.1-1.8-.5-2.2-.8-.3-.4.1-.5 1-.4.8.1 1.8.5 2.2.8zM277 486.4c0 .2-.8 1-1.7 1.7-1.6 1.3-1.7 1.2-.4-.4 1.3-1.6 2.1-2.1 2.1-1.3zm140.1 5.3c1.3 1.6 1.2 1.7-.3.4-1.7-1.3-2.2-2.1-1.4-2.1.2 0 1 .8 1.7 1.7zm-2.1 13.7c0 .3-.4.8-1 1.1-.5.3-1 .1-1-.4 0-.6.5-1.1 1-1.1.6 0 1 .2 1 .4zm-149.9 2.3c1.3 1.6 1.2 1.7-.3.4-1.7-1.3-2.2-2.1-1.4-2.1.2 0 1 .8 1.7 1.7zm140.3 8.1c.3.5-.1.9-.9.9s-1.2-.4-.9-.9c.3-.4.7-.8.9-.8.2 0 .6.4.9.8zm-1.4 9.8c0 .8-1.9 1.3-2.4.6-.3-.5.1-.9.9-.9s1.5.2 1.5.3zm3 .4c0 .5-.5 1-1.1 1-.5 0-.7-.5-.4-1 .3-.6.8-1 1.1-1 .2 0 .4.4.4 1zm-8 4c0 .5-.2 1-.4 1-.3 0-.8-.5-1.1-1-.3-.6-.1-1 .4-1 .6 0 1.1.4 1.1 1zm3.5 4c.3.5.1 1-.4 1-.6 0-1.1-.5-1.1-1 0-.6.2-1 .4-1 .3 0 .8.4 1.1 1zm-8 4.1c.2.3-.8.5-2.5.5-1.6 0-2.7-.3-2.5-.6.5-.8 4.2-.6 5 .1zm4.5-.1c0 .5-.5 1-1.1 1-.5 0-.7-.5-.4-1 .3-.6.8-1 1.1-1 .2 0 .4.4.4 1zm-8.4 9.6c.1.9 0 1.3-.4 1-.3-.4-.7-1.4-.8-2.2-.1-.9 0-1.3.4-1 .3.4.7 1.4.8 2.2zm4 0c.1.9 0 1.3-.4 1-.3-.4-.7-1.4-.8-2.2-.1-.9 0-1.3.4-1 .3.4.7 1.4.8 2.2zm-189.8 4.9c-.3.3-.9-.2-1.2-1.2-.6-1.4-.5-1.5.5-.6.7.7 1 1.5.7 1.8zm187.7-.6c.3.5.2 1.2-.3 1.5-.5.3-.9-.1-.9-.9 0-1.7.3-1.9 1.2-.6zm5.5-.3c0 .8-1.9 1.3-2.4.6-.3-.5.1-.9.9-.9s1.5.2 1.5.3zm-197.7 3.9c-.3.9-.8 1.4-1 1.1-.3-.3-.2-.9.2-1.5.9-1.6 1.5-1.3.8.4zm196.7 1.9c0 .3-.4.8-1 1.1-.5.3-1 .1-1-.4 0-.6.5-1.1 1-1.1.6 0 1 .2 1 .4zm-193 2c0 .2-.8 1-1.7 1.7-1.6 1.3-1.7 1.2-.4-.4 1.3-1.6 2.1-2.1 2.1-1.3zm182.4 2.4c.3.5-.1.9-.9.9s-1.2-.4-.9-.9c.3-.4.7-.8.9-.8.2 0 .6.4.9.8zm-5.9 3.1c.3.5.2 1.2-.3 1.5-.5.3-.9-.1-.9-.9 0-1.7.3-1.9 1.2-.6zm-6.1 6.9c.3.5-.1.9-.9.9s-1.2-.4-.9-.9c.3-.4.7-.8.9-.8.2 0 .6.4.9.8zm3.6 3.6c0 .2-.8 1-1.7 1.7-1.6 1.3-1.7 1.2-.4-.4 1.3-1.6 2.1-2.1 2.1-1.3zm9.4.4c.3.5-.1.9-.9.9s-1.2-.4-.9-.9c.3-.4.7-.8.9-.8.2 0 .6.4.9.8zm-18.7 5.7c0 .8-.4 1.2-.9.9-.5-.3-.6-1-.3-1.5.9-1.3 1.2-1.1 1.2.6zm173.3 8.1c0 .8-1.9 1.3-2.4.6-.3-.5.1-.9.9-.9s1.5.2 1.5.3zM369 592c0 .5-.5 1-1.1 1-.5 0-.7-.5-.4-1 .3-.6.8-1 1.1-1 .2 0 .4.4.4 1zm165.1 5.3c-1 .9-1.1.8-.5-.6.3-1 .9-1.5 1.2-1.2.3.3 0 1.1-.7 1.8zM363 608c0 .5-.2 1-.4 1-.3 0-.8-.5-1.1-1-.3-.6-.1-1 .4-1 .6 0 1.1.4 1.1 1zm-206.5 2.9c.3.5.2 1.2-.3 1.5-.5.3-.9-.1-.9-.9 0-1.7.3-1.9 1.2-.6zm398.6 5.4c-.6.8-.7 1.8-.3 2.2.4.5.1.5-.6.1-1-.6-1-1.1-.1-2.2.6-.8 1.4-1.4 1.6-1.4.3 0 0 .6-.6 1.3zM353.5 668c-.3.5-1.2 1-1.8 1-.7 0-.6-.4.3-1 1.9-1.2 2.3-1.2 1.5 0zm7 .8c-.3.3-1.1 0-1.8-.7-.9-1-.8-1.1.6-.5 1 .3 1.5.9 1.2 1.2z"/></svg>